:SAMPLES-PER-SECOND 25
:FULLY-SPECIFIED
:DEGREES
320
root  8.77406 46.1488 -41.9855 172.221 1.70746 156.477
RightUpLeg  -53.6014 12.0235 -19.8605
RightLeg  40.4782 10.6444 9.32647
RightFoot  17.944 -2.33173 9.38666
RightToes  2.84633e-005 7.89722e-005 -0.000426369
Spine  13.218 -2.03661 4.86097
Spine1  26.9947 -5.42912 2.78727
HEad  9.68463 -16.8557 3.85467
LeftShoulder1  -3.88251e-019 0 -3.92111e-022
LeftArm  -38.1017 -26.8176 -48.6258
LeftForeArm  28.4406 -35.72 -6.36611
LeftHand  -0.766196 -3.89961 9.83198
RightShoulder  7.45443e-017 -2.42657e-020 1.96277e-018
RightArm  -22.7747 6.95256 70.2693
RightForeArm  40.8733 -0.815143 -3.30106
RightHand  -20.0042 20.2219 -77.3188
LeftUpLeg  -82.3863 3.68413 31.8125
LeftLeg  129.265 20.8324 -22.4204
LeftFoot  -37.4511 -2.57523 -12.0483
LeftToes  3.91355e-005 3.11907e-005 -4.10385e-006
321
root  8.56674 46.4691 -42.6119 172.925 1.12584 157.447
RightUpLeg  -50.0482 10.525 -20.5229
RightLeg  34.6041 10.1412 7.19709
RightFoot  18.9027 -2.63757 10.2281
RightToes  2.84633e-005 7.89722e-005 -0.000426369
Spine  12.7043 -2.56799 6.33518
Spine1  25.8263 -6.67403 5.6564
HEad  10.3008 -19.006 1.39151
LeftShoulder1  -3.88251e-019 0 -3.92111e-022
LeftArm  -35.7141 -26.1399 -51.4519
LeftForeArm  28.6108 -40.2518 -7.64075
LeftHand  -0.767785 -3.63835 10.1205
RightShoulder  7.45443e-017 -2.42657e-020 1.96277e-018
RightArm  -24.1039 6.05681 66.8669
RightForeArm  42.3876 -1.01108 -3.47339
RightHand  -20.3321 20.4793 -77.6788
LeftUpLeg  -80.7363 3.74334 32.5165
LeftLeg  126.819 25.3664 -28.3653
LeftFoot  -37.0863 -2.40749 -11.4863
LeftToes  3.91355e-005 3.11907e-005 -4.10385e-006
322
root  8.29598 46.6425 -43.4764 173.455 0.100018 158.127
RightUpLeg  -45.8842 8.84967 -22.1881
RightLeg  29.4561 11.8438 6.9165
RightFoot  21.8256 -3.59954 12.5674
RightToes  2.84633e-005 7.89722e-005 -0.000426369
Spine  11.9868 -2.88467 7.95968
Spine1  24.2251 -7.48531 8.57965
HEad  11.6633 -21.5701 -1.61572
LeftShoulder1  -3.88251e-019 0 -3.92111e-022
LeftArm  -32.8048 -26.0356 -53.7223
LeftForeArm  29.6629 -45.1743 -9.19802
LeftHand  -0.720819 -3.50684 9.65286
RightShoulder  7.45443e-017 -2.42657e-020 1.96277e-018
RightArm  -25.431 3.04402 63.4376
RightForeArm  43.1031 0.294469 -3.19562
RightHand  -20.6557 20.5718 -78.3804
LeftUpLeg  -79.1731 5.03218 32.1599
LeftLeg  126.568 27.9587 -30.7635
LeftFoot  -36.5412 -2.2052 -10.8233
LeftToes  3.91355e-005 3.11907e-005 -4.10385e-006
323
root  8.04885 46.7448 -44.5412 173.502 -1.6707 158.798
RightUpLeg  -40.7832 7.69498 -24.3238
RightLeg  24.7732 13.4769 6.5133
RightFoot  22.8128 -4.02299 13.5702
RightToes  2.84633e-005 7.89722e-005 -0.000426369
Spine  11.128 -3.4134 9.35394
Spine1  22.3486 -8.54709 11.338
HEad  13.1474 -24.236 -4.2737
LeftShoulder1  -3.88251e-019 0 -3.92111e-022
LeftArm  -30.4769 -25.9596 -54.9923
LeftForeArm  31.2978 -50.694 -11.2707
LeftHand  -0.729149 -3.04638 10.2621
RightShoulder  7.45443e-017 -2.42657e-020 1.96277e-018
RightArm  -25.9566 -0.976051 60.6837
RightForeArm  43.2871 0.886298 -3.16265
RightHand  -20.7522 20.4037 -79.0103
LeftUpLeg  -77.3242 5.79096 32.558
LeftLeg  126.212 30.9057 -33.4077
LeftFoot  -33.93 -2.164 -11.7684
LeftToes  3.91355e-005 3.11907e-005 -4.10385e-006
324
root  7.93564 46.7135 -45.8631 172.988 -2.64457 158.738
RightUpLeg  -36.0793 9.54067 -27.0554
RightLeg  21.7113 13.7669 5.39053
RightFoot  23.2634 -3.59551 12.0425
RightToes  2.84633e-005 7.89722e-005 -0.000426369
Spine  10.3332 -3.933 9.79209
Spine1  20.6582 -9.31378 12.833
HEad  16.0245 -25.8684 -7.41434
LeftShoulder1  -3.88251e-019 0 -3.92111e-022
LeftArm  -29.1372 -26.8497 -54.9411
LeftForeArm  33.1961 -54.4946 -12.9789
LeftHand  -0.776557 -2.31309 11.9007
RightShoulder  7.45443e-017 -2.42657e-020 1.96277e-018
RightArm  -23.7797 -7.83029 58.972
RightForeArm  41.1027 4.01717 -2.50839
RightHand  -21.7423 20.7394 -80.9628
LeftUpLeg  -74.6281 5.45133 34.9417
LeftLeg  123.918 34.655 -38.3863
LeftFoot  -25.6789 -1.86901 -15.7481
LeftToes  3.91355e-005 3.11907e-005 -4.10385e-006
325
root  7.91957 46.4445 -47.4726 171.523 -1.75625 158.502
RightUpLeg  -31.6933 10.0164 -27.0469
RightLeg  20.3724 15.648 5.37101
RightFoot  24.0334 -3.59414 11.7681
RightToes  2.84633e-005 7.89722e-005 -0.000426369
Spine  9.93554 -4.48352 9.45226
Spine1  19.7983 -10.1418 13.1646
HEad  19.9002 -25.0521 -11.509
LeftShoulder1  -3.88251e-019 0 -3.92111e-022
LeftArm  -29.6186 -26.5158 -55.1841
LeftForeArm  34.4588 -57.2191 -14.4556
LeftHand  -0.873564 -1.46633 14.932
RightShoulder  7.45443e-017 -2.42657e-020 1.96277e-018
RightArm  -24.3397 -11.0783 57.52
RightForeArm  43.5269 4.7024 -1.38092
RightHand  -22.237 21.1048 -81.4731
LeftUpLeg  -72.5199 3.50819 38.3611
LeftLeg  121.568 36.3897 -42.0273
LeftFoot  -7.77508 0.732562 -22.8562
LeftToes  3.91355e-005 3.11907e-005 -4.10385e-006
326
root  7.90252 45.9171 -49.2139 170.199 1.17978 159.518
RightUpLeg  -28.0074 5.51338 -22.7707
RightLeg  18.6661 17.2337 4.84372
RightFoot  23.0845 -3.91786 13.1271
RightToes  2.84633e-005 7.89722e-005 -0.000426369
Spine  9.62667 -4.70393 9.08928
Spine1  19.0783 -10.5414 13.7324
HEad  23.8026 -21.904 -15.0199
LeftShoulder1  -3.88251e-019 0 -3.92111e-022
LeftArm  -30.139 -23.8897 -57.0806
LeftForeArm  35.9728 -59.6072 -15.9239
LeftHand  -0.865965 -1.10593 15.5896
RightShoulder  7.45443e-017 -2.42657e-020 1.96277e-018
RightArm  -25.5634 -13.6455 56.8032
RightForeArm  49.1138 4.89592 -0.0779477
RightHand  -22.8452 21.1567 -82.9294
LeftUpLeg  -72.1886 0.417956 41.2124
LeftLeg  117.901 37.1202 -46.5984
LeftFoot  16.006 8.07007 -32.7719
LeftToes  3.91355e-005 3.11907e-005 -4.10385e-006
327
root  8.08576 45.0521 -50.9215 169.38 4.72023 160.565
RightUpLeg  -25.8453 3.32209 -19.1937
RightLeg  17.5733 13.4166 2.79558
RightFoot  23.6193 -3.11341 10.3998
RightToes  2.84633e-005 7.89722e-005 -0.000426369
Spine  9.53906 -4.94979 8.6007
Spine1  18.854 -10.8415 12.9182
HEad  27.5797 -17.2237 -16.3785
LeftShoulder1  -3.88251e-019 0 -3.92111e-022
LeftArm  -30.108 -19.8303 -59.8299
LeftForeArm  37.3515 -61.4274 -17.1913
LeftHand  -0.80047 -1.20412 14.2224
RightShoulder  7.45443e-017 -2.42657e-020 1.96277e-018
RightArm  -25.2973 -17.4617 56.8729
RightForeArm  53.3033 6.84242 1.52814
RightHand  -22.9912 21.6084 -82.3265
LeftUpLeg  -68.5269 -2.38653 38.4151
LeftLeg  117.068 35.3696 -46.3866
LeftFoot  25.0591 11.5187 -34.5811
LeftToes  3.91355e-005 3.11907e-005 -4.10385e-006
